<svg xmlns="http://www.w3.org/2000/svg" xmlns:xlink="http://www.w3.org/1999/xlink" width="300" zoomAndPan="magnify" viewBox="0 0 224.87999 225" height="300" preserveAspectRatio="xMidYMid meet" version="1.0"><defs><clipPath id="72dd4c3f03"><path d="M 79.050781 68.078125 L 121.035156 68.078125 L 121.035156 110.0625 L 79.050781 110.0625 Z M 79.050781 68.078125 " clip-rule="nonzero"/></clipPath><clipPath id="8d666fa0fd"><path d="M 86.546875 68.078125 L 113.539062 68.078125 C 117.679688 68.078125 121.035156 71.433594 121.035156 75.574219 L 121.035156 102.566406 C 121.035156 106.707031 117.679688 110.0625 113.539062 110.0625 L 86.546875 110.0625 C 82.40625 110.0625 79.050781 106.707031 79.050781 102.566406 L 79.050781 75.574219 C 79.050781 71.433594 82.40625 68.078125 86.546875 68.078125 Z M 86.546875 68.078125 " clip-rule="nonzero"/></clipPath><clipPath id="f4b95aa5c8"><path d="M 79.050781 68.078125 L 121.027344 68.078125 L 121.027344 110.054688 L 79.050781 110.054688 Z M 79.050781 68.078125 " clip-rule="nonzero"/></clipPath><clipPath id="78c530ec0a"><path d="M 86.546875 68.078125 L 113.535156 68.078125 C 117.671875 68.078125 121.027344 71.433594 121.027344 75.574219 L 121.027344 102.5625 C 121.027344 106.699219 117.671875 110.054688 113.535156 110.054688 L 86.546875 110.054688 C 82.40625 110.054688 79.050781 106.699219 79.050781 102.5625 L 79.050781 75.574219 C 79.050781 71.433594 82.40625 68.078125 86.546875 68.078125 Z M 86.546875 68.078125 " clip-rule="nonzero"/></clipPath><clipPath id="b40208aca6"><path d="M 91.445312 114.9375 L 133.433594 114.9375 L 133.433594 156.921875 L 91.445312 156.921875 Z M 91.445312 114.9375 " clip-rule="nonzero"/></clipPath><clipPath id="f052e18b7e"><path d="M 98.941406 114.9375 L 125.9375 114.9375 C 130.078125 114.9375 133.433594 118.292969 133.433594 122.433594 L 133.433594 149.425781 C 133.433594 153.566406 130.078125 156.921875 125.9375 156.921875 L 98.941406 156.921875 C 94.804688 156.921875 91.445312 153.566406 91.445312 149.425781 L 91.445312 122.433594 C 91.445312 118.292969 94.804688 114.9375 98.941406 114.9375 Z M 98.941406 114.9375 " clip-rule="nonzero"/></clipPath><clipPath id="bf4194631b"><path d="M 91.445312 114.9375 L 133.425781 114.9375 L 133.425781 156.914062 L 91.445312 156.914062 Z M 91.445312 114.9375 " clip-rule="nonzero"/></clipPath><clipPath id="3dd22d9975"><path d="M 98.941406 114.9375 L 125.929688 114.9375 C 130.070312 114.9375 133.425781 118.292969 133.425781 122.429688 L 133.425781 149.417969 C 133.425781 153.558594 130.070312 156.914062 125.929688 156.914062 L 98.941406 156.914062 C 94.800781 156.914062 91.445312 153.558594 91.445312 149.417969 L 91.445312 122.429688 C 91.445312 118.292969 94.800781 114.9375 98.941406 114.9375 Z M 98.941406 114.9375 " clip-rule="nonzero"/></clipPath><clipPath id="c9248cb5e4"><path d="M 44.382812 114.9375 L 86.367188 114.9375 L 86.367188 156.921875 L 44.382812 156.921875 Z M 44.382812 114.9375 " clip-rule="nonzero"/></clipPath><clipPath id="8ca96d59a9"><path d="M 51.878906 114.9375 L 78.871094 114.9375 C 83.011719 114.9375 86.367188 118.292969 86.367188 122.433594 L 86.367188 149.425781 C 86.367188 153.566406 83.011719 156.921875 78.871094 156.921875 L 51.878906 156.921875 C 47.738281 156.921875 44.382812 153.566406 44.382812 149.425781 L 44.382812 122.433594 C 44.382812 118.292969 47.738281 114.9375 51.878906 114.9375 Z M 51.878906 114.9375 " clip-rule="nonzero"/></clipPath><clipPath id="617085298a"><path d="M 44.382812 114.9375 L 86.359375 114.9375 L 86.359375 156.914062 L 44.382812 156.914062 Z M 44.382812 114.9375 " clip-rule="nonzero"/></clipPath><clipPath id="52916eb411"><path d="M 51.875 114.9375 L 78.863281 114.9375 C 83.003906 114.9375 86.359375 118.292969 86.359375 122.429688 L 86.359375 149.417969 C 86.359375 153.558594 83.003906 156.914062 78.863281 156.914062 L 51.875 156.914062 C 47.738281 156.914062 44.382812 153.558594 44.382812 149.417969 L 44.382812 122.429688 C 44.382812 118.292969 47.738281 114.9375 51.875 114.9375 Z M 51.875 114.9375 " clip-rule="nonzero"/></clipPath><clipPath id="90bbe3db7b"><path d="M 138.511719 114.9375 L 180.5 114.9375 L 180.5 156.921875 L 138.511719 156.921875 Z M 138.511719 114.9375 " clip-rule="nonzero"/></clipPath><clipPath id="f8b672489d"><path d="M 146.007812 114.9375 L 173.003906 114.9375 C 177.140625 114.9375 180.5 118.292969 180.5 122.433594 L 180.5 149.425781 C 180.5 153.566406 177.140625 156.921875 173.003906 156.921875 L 146.007812 156.921875 C 141.867188 156.921875 138.511719 153.566406 138.511719 149.425781 L 138.511719 122.433594 C 138.511719 118.292969 141.867188 114.9375 146.007812 114.9375 Z M 146.007812 114.9375 " clip-rule="nonzero"/></clipPath><clipPath id="287fd29965"><path d="M 138.511719 114.9375 L 180.492188 114.9375 L 180.492188 156.914062 L 138.511719 156.914062 Z M 138.511719 114.9375 " clip-rule="nonzero"/></clipPath><clipPath id="05ec1ae0dd"><path d="M 146.007812 114.9375 L 172.996094 114.9375 C 177.136719 114.9375 180.492188 118.292969 180.492188 122.429688 L 180.492188 149.417969 C 180.492188 153.558594 177.136719 156.914062 172.996094 156.914062 L 146.007812 156.914062 C 141.867188 156.914062 138.511719 153.558594 138.511719 149.417969 L 138.511719 122.429688 C 138.511719 118.292969 141.867188 114.9375 146.007812 114.9375 Z M 146.007812 114.9375 " clip-rule="nonzero"/></clipPath></defs><g clip-path="url(#72dd4c3f03)"><g clip-path="url(#8d666fa0fd)"><path fill="#f0360e" d="M 79.050781 68.078125 L 121.035156 68.078125 L 121.035156 110.0625 L 79.050781 110.0625 Z M 79.050781 68.078125 " fill-opacity="1" fill-rule="nonzero"/></g></g><g clip-path="url(#f4b95aa5c8)"><g clip-path="url(#78c530ec0a)"><path stroke-linecap="butt" transform="matrix(0.7496, 0, 0, 0.7496, 79.050722, 68.078075)" fill="none" stroke-linejoin="miter" d="M 10.000205 0.0000666003 L 46.003785 0.0000666003 C 51.522353 0.0000666003 55.998699 4.476413 55.998699 10.000193 L 55.998699 46.003773 C 55.998699 51.522341 51.522353 55.998687 46.003785 55.998687 L 10.000205 55.998687 C 4.476425 55.998687 0.0000786358 51.522341 0.0000786358 46.003773 L 0.0000786358 10.000193 C 0.0000786358 4.476413 4.476425 0.0000666003 10.000205 0.0000666003 Z M 10.000205 0.0000666003 " stroke="#f0360e" stroke-width="4" stroke-opacity="1" stroke-miterlimit="4"/></g></g><g clip-path="url(#b40208aca6)"><g clip-path="url(#f052e18b7e)"><path fill="#f0360e" d="M 91.445312 114.9375 L 133.433594 114.9375 L 133.433594 156.921875 L 91.445312 156.921875 Z M 91.445312 114.9375 " fill-opacity="1" fill-rule="nonzero"/></g></g><g clip-path="url(#bf4194631b)"><g clip-path="url(#3dd22d9975)"><path stroke-linecap="butt" transform="matrix(0.7496, 0, 0, 0.7496, 91.447203, 114.936344)" fill="none" stroke-linejoin="miter" d="M 9.997604 0.00154186 L 46.001184 0.00154186 C 51.524964 0.00154186 56.00131 4.477888 56.00131 9.996457 L 56.00131 46.000037 C 56.00131 51.523817 51.524964 56.000163 46.001184 56.000163 L 9.997604 56.000163 C 4.473824 56.000163 -0.00252208 51.523817 -0.00252208 46.000037 L -0.00252208 9.996457 C -0.00252208 4.477888 4.473824 0.00154186 9.997604 0.00154186 Z M 9.997604 0.00154186 " stroke="#f0360e" stroke-width="4" stroke-opacity="1" stroke-miterlimit="4"/></g></g><g clip-path="url(#c9248cb5e4)"><g clip-path="url(#8ca96d59a9)"><path fill="#f0360e" d="M 44.382812 114.9375 L 86.367188 114.9375 L 86.367188 156.921875 L 44.382812 156.921875 Z M 44.382812 114.9375 " fill-opacity="1" fill-rule="nonzero"/></g></g><g clip-path="url(#617085298a)"><g clip-path="url(#52916eb411)"><path stroke-linecap="butt" transform="matrix(0.7496, 0, 0, 0.7496, 44.381754, 114.936344)" fill="none" stroke-linejoin="miter" d="M 9.996327 0.00154186 L 45.999907 0.00154186 C 51.523687 0.00154186 56.000033 4.477888 56.000033 9.996457 L 56.000033 46.000037 C 56.000033 51.523817 51.523687 56.000163 45.999907 56.000163 L 9.996327 56.000163 C 4.477758 56.000163 0.00141199 51.523817 0.00141199 46.000037 L 0.00141199 9.996457 C 0.00141199 4.477888 4.477758 0.00154186 9.996327 0.00154186 Z M 9.996327 0.00154186 " stroke="#f0360e" stroke-width="4" stroke-opacity="1" stroke-miterlimit="4"/></g></g><g clip-path="url(#90bbe3db7b)"><g clip-path="url(#f8b672489d)"><path fill="#f0360e" d="M 138.511719 114.9375 L 180.5 114.9375 L 180.5 156.921875 L 138.511719 156.921875 Z M 138.511719 114.9375 " fill-opacity="1" fill-rule="nonzero"/></g></g><g clip-path="url(#287fd29965)"><g clip-path="url(#05ec1ae0dd)"><path stroke-linecap="butt" transform="matrix(0.7496, 0, 0, 0.7496, 138.512642, 114.936344)" fill="none" stroke-linejoin="miter" d="M 9.998894 0.00154186 L 46.002474 0.00154186 C 51.526254 0.00154186 56.0026 4.477888 56.0026 9.996457 L 56.0026 46.000037 C 56.0026 51.523817 51.526254 56.000163 46.002474 56.000163 L 9.998894 56.000163 C 4.475114 56.000163 -0.00123224 51.523817 -0.00123224 46.000037 L -0.00123224 9.996457 C -0.00123224 4.477888 4.475114 0.00154186 9.998894 0.00154186 Z M 9.998894 0.00154186 " stroke="#f0360e" stroke-width="4" stroke-opacity="1" stroke-miterlimit="4"/></g></g></svg>